PathFileType	4	(X/Y/Z)	Walk10.trc
DataRate	CameraRate	NumFrames	NumMarkers	Units	OrigDataRate	OrigDataStartFrame	OrigNumFrames
200.000000	200.000000	4	60	mm	200.000000	482	568
Frame#	Times		LFHD		RFHD		CLAV		STRN		LASI		RASI		RACR1		RUA1		RElbow		RFA1		RWRR		RWRU		RCAR		LACR1		LUA1		LElbow		LFA1		LWRR		LWRU		LCAR		RTH2		RTB1		RTB2		LTH1		LTH3		LTH2		LLFC		LMFC		LTB1		LTB2		LTB4		LMT1		RTB4		LTB3		RTH3		RTB3		LToe		RMFC		LTH4		RElbowM		RTH4		RToe		RTH1		RMT1		RMMAL		RLFC		LBHD		RCAL		RBack		LMT5		RLMAL		RPSI		LMMAL		T10		C7		LPSI		LLMAL		LElbowM		LCAL		RBHD
			X1	Y1	Z1	X2	Y2	Z2	X3	Y3	Z3	X4	Y4	Z4	X5	Y5	Z5	X6	Y6	Z6	X7	Y7	Z7	X8	Y8	Z8	X9	Y9	Z9	X10	Y10	Z10	X11	Y11	Z11	X12	Y12	Z12	X13	Y13	Z13	X14	Y14	Z14	X15	Y15	Z15	X16	Y16	Z16	X17	Y17	Z17	X18	Y18	Z18	X19	Y19	Z19	X20	Y20	Z20	X21	Y21	Z21	X22	Y22	Z22	X23	Y23	Z23	X24	Y24	Z24	X25	Y25	Z25	X26	Y26	Z26	X27	Y27	Z27	X28	Y28	Z28	X29	Y29	Z29	X30	Y30	Z30	X31	Y31	Z31	X32	Y32	Z32	X33	Y33	Z33	X34	Y34	Z34	X35	Y35	Z35	X36	Y36	Z36	X37	Y37	Z37	X38	Y38	Z38	X39	Y39	Z39	X40	Y40	Z40	X41	Y41	Z41	X42	Y42	Z42	X43	Y43	Z43	X44	Y44	Z44	X45	Y45	Z45	X46	Y46	Z46	X47	Y47	Z47	X48	Y48	Z48	X49	Y49	Z49	X50	Y50	Z50	X51	Y51	Z51	X52	Y52	Z52	X53	Y53	Z53	X54	Y54	Z54	X55	Y55	Z55	X56	Y56	Z56	X57	Y57	Z57	X58	Y58	Z58	X59	Y59	Z59	X60	Y60	Z60

482	2.41	1073	1629.6	-65.701	1076.7	1644.4	32.129	1075.4	1382.4	21.059	1142.5	1226.7	34.461	1033	962.27	-128.29	1022	975.84	230.22	960.88	1481.7	186.62	945.41	1319.3	314.95	960.29	1173.7	370.66	1008.6	1029.1	386.81	1041.6	914.18	317.02	1037.8	919.07	398.81	1084.5	843.42	365.07	954.93	1432.3	-161.67	893	1263	-234.8	847.66	1103.4	-273.35	845.67	962.26	-283.55	882.67	832.8	-227.02	829.31	823.5	-278.38	871.94	744.15	-257.94	938.63	670.6	250.34	811.47	346.27	176.77	725.27	305.96	221.9	1024.2	752.02	-149.5	1084.5	594.7	-119.23	1106.3	697.08	-119.97	1091.9	511.19	-115.34	1115.5	514.47	40.376	1181.2	404.38	-50.02	1154.8	308.49	-82.319	1185.9	322.47	-28.799	1269.4	38.745	9.5717	744.36	292.29	165.25	1181.3	236.51	-11.031	875.61	586.97	254.82	678.21	238.69	153.36	1314.7	45.046	-26.097	849.9	474.47	93.775	1052.9	673.92	-133.65	910.84	1096.1	280.07	881.5	672.28	261.18	627.53	24.424	140.44	885.47	758.67	268.02	592.15	42.237	102.25	556.93	174.7	87.97	832.87	481.2	248.22	920.3	1555.4	-62.696	467.15	214.79	119.42	817.19	1356.8	144.22	1203.9	24.357	-66.119	517.75	187.01	168.88	767.13	1012.8	76.031	1133.4	86.655	80.5	813.85	1149.7	41.89	880.1	1464.2	17.34	783.95	1014.7	-7.2749	1104.2	72.01	-3.9046	790.69	1060.4	-170.18	1059.5	43.918	55.541	941.32	1581.5	83.951
483	2.415	1079.3	1630.5	-66.752	1083.1	1645.4	31.061	1081.6	1383.6	20.059	1148.8	1227.9	33.599	1039	963.4	-129.57	1028.9	976.82	228.83	967.29	1483	185.59	951.68	1320.6	313.97	965.98	1174.9	369.4	1013.4	1030	385.77	1045.5	914.7	316.09	1041.8	919.73	397.88	1087.8	843.5	364.14	961.17	1433.4	-162.54	899.9	1263.8	-235.57	855.24	1104	-274.04	854.3	962.84	-284.28	892.34	833.67	-227.83	839.06	824.01	-279.15	882.46	745.05	-259.01	948.72	671.39	250.41	822.48	346.83	178.11	735.68	307.9	223.43	1029.1	752.29	-150.16	1088.4	594.68	-119.55	1110.8	696.9	-120.68	1095.3	511.22	-115.48	1119.3	514.54	40.206	1184	403.81	-50.02	1157.1	308.07	-82.285	1188.1	321.91	-28.728	1269.6	38.496	9.8367	754.54	293.85	166.78	1182.9	235.99	-10.873	886.82	586.99	255.52	687.56	241.19	155.1	1315.3	44.173	-25.852	862.59	473.93	94.809	1057.3	674.05	-134.06	916.3	1097.7	278.85	891.62	672.4	261.47	630.47	24.343	141.14	894.52	758.86	267.77	596.37	44.766	102.95	565.11	179.15	89.937	845.07	481.3	249.32	926.55	1556.5	-63.74	476.59	221.41	121.71	823.59	1358.1	143.56	1204	24.518	-66.073	526.25	191.94	170.9	773.55	1013.5	75.328	1133.7	86.53	80.727	820.11	1150.8	40.968	886.31	1465.2	16.41	790.19	1015.9	-8.162	1104.6	72.081	-3.729	798.87	1060.5	-170.74	1059.6	44.105	55.657	947.57	1582.7	82.883
484	2.42	1085.7	1631.4	-67.733	1089.4	1646.4	30.066	1087.8	1384.9	19.091	1155.2	1229.1	32.729	1045	964.51	-130.86	1035.8	977.81	227.43	973.64	1484.3	184.6	957.83	1322	313.02	971.61	1176.1	368.18	1018.2	1030.8	384.76	1049.3	915.22	315.19	1045.8	920.4	396.97	1091.1	843.6	363.23	967.39	1434.5	-163.39	906.8	1264.6	-236.36	862.83	1104.6	-274.76	862.99	963.49	-285.04	902.09	834.63	-228.66	848.89	824.58	-279.92	893.11	746.06	-260.08	958.86	672.24	250.45	833.72	347.47	179.27	746.43	309.8	224.84	1034	752.61	-150.78	1092.3	594.69	-119.87	1115.4	696.75	-121.31	1098.7	511.25	-115.64	1123	514.58	40.044	1186.8	403.26	-50.018	1159.2	307.67	-82.258	1190.3	321.38	-28.661	1269.8	38.309	10.066	765	295.46	168.17	1184.4	235.5	-10.727	898.12	587.05	256.17	697.24	243.7	156.71	1315.8	43.356	-25.653	875.4	473.53	95.732	1061.6	674.22	-134.47	921.7	1099.3	277.66	901.82	672.55	261.75	634.13	24.393	141.98	903.61	759.07	267.51	601.29	47.443	103.82	573.63	183.55	91.86	857.43	481.43	250.34	932.76	1557.6	-64.732	486.32	227.77	124.07	829.92	1359.4	142.87	1204.1	24.666	-66.028	535.19	196.78	172.94	779.9	1014.1	74.601	1134	86.421	80.928	826.33	1151.8	40.032	892.51	1466.3	15.497	796.39	1017.1	-9.0702	1105	72.152	-3.5724	807.04	1060.7	-171.34	1059.7	44.281	55.762	953.78	1583.9	81.873
485	2.425	1091.9	1632.4	-68.648	1095.6	1647.4	29.142	1093.9	1386.1	18.155	1161.5	1230.3	31.849	1051	965.59	-132.15	1042.5	978.81	226.04	979.94	1485.6	183.66	963.87	1323.4	312.11	977.2	1177.3	367.01	1023	1031.7	383.77	1053.2	915.76	314.31	1049.8	921.07	396.08	1094.4	843.74	362.34	973.58	1435.6	-164.21	913.7	1265.4	-237.15	870.43	1105.3	-275.52	871.72	964.19	-285.82	911.93	835.66	-229.51	858.79	825.2	-280.7	903.88	747.15	-261.17	969.05	673.14	250.46	845.18	348.21	180.26	757.52	311.65	226.14	1038.9	752.97	-151.37	1096.1	594.73	-120.18	1119.9	696.61	-121.87	1102	511.28	-115.81	1126.5	514.6	39.882	1189.4	402.71	-50.019	1161.2	307.28	-82.242	1192.3	320.86	-28.601	1270	38.174	10.262	775.73	297.13	169.39	1185.8	235.03	-10.594	909.49	587.18	256.76	707.23	246.23	158.17	1316.4	42.589	-25.499	888.29	473.3	96.541	1065.9	674.42	-134.87	927.03	1100.8	276.53	912.06	672.75	262.01	638.58	24.61	142.98	912.73	759.31	267.26	606.95	50.237	104.86	582.49	187.86	93.724	869.91	481.6	251.29	938.93	1558.8	-65.672	496.32	233.83	126.46	836.18	1360.7	142.14	1204.1	24.799	-65.987	544.54	201.48	174.97	786.21	1014.8	73.861	1134.3	86.328	81.105	832.51	1152.9	39.097	898.68	1467.4	14.601	802.55	1018.3	-9.9895	1105.3	72.221	-3.4348	815.21	1061	-171.99	1059.8	44.446	55.855	959.95	1585.1	80.918
